<?xml version="1.0" encoding="UTF-8"?>
<svg id="Layer_2" data-name="Layer 2" xmlns="http://www.w3.org/2000/svg" viewBox="0 0 499.17 499.17">
  <defs>
    <style>
      .cls-1 {
        fill: #d74226;
        fill-rule: evenodd;
        stroke-width: 0px;
      }
    </style>
  </defs>
  <g id="Layer_1-2" data-name="Layer 1">
    <path class="cls-1" d="M248.62,499.17h.23-.23ZM250.37,499.17h-.09.23-.14ZM247.88,499.17h.23-.23ZM251.2,499.17h-.14.23-.09ZM247.14,499.17h.14-.14ZM251.99,499.17h-.14.14ZM252.82,499.17h-.05.23-.18ZM246.21,499.17h.23-.23ZM253.61,499.13h-.14.28-.14ZM245.43,499.13h.28-.28ZM254.44,499.13h-.18.23-.09.05ZM244.69,499.13h.23-.28.05ZM243.76,499.13h.23-.23ZM255.23,499.13h.23-.23ZM242.98,499.08h.32-.32ZM256.01,499.08h-.14.32-.18ZM256.84,499.08h-.18.32-.14ZM242.24,499.08h.32-.32ZM241.54,499.03h.23-.37.18-.05ZM257.63,499.03h-.18.42-.23ZM258.41,499.03h-.09.32-.23ZM240.53,498.99h.32-.32ZM239.79,498.99h.37-.37ZM259.25,498.99h-.18.37-.18ZM239.05,498.94h.32-.37.05ZM260.03,498.94h-.28.32-.09.05ZM238.08,498.9h.37-.37ZM260.82,498.94h-.09.37-.28ZM237.34,498.9h.37-.37,0ZM261.6,498.9h-.18.37-.18,0ZM236.65,498.85h.37-.37ZM262.44,498.85h-.28.37-.09ZM263.22,498.8h-.37.69-.32ZM236,498.8h.32-.69.37ZM264.01,498.76h-.14.42-.28ZM234.94,498.76h.42-.42ZM234.2,498.71h.42-.42ZM264.79,498.71h-.23.42-.18ZM233.55,498.67h.37-.65.32-.05ZM265.63,498.67h-.32.69-.37ZM266.41,498.62h-.14.37-.28.05ZM232.53,498.62h.37-.42.05ZM231.79,498.53h.37-.37,0ZM267.2,498.57h-.18.37-.18,0ZM231.1,498.48h.32-.37.05ZM267.98,498.53h-.28.32-.09.05ZM230.17,498.43h.28-.32.05ZM268.77,498.43h-.09.28-.23.05ZM269.55,498.39h-.14.32-.18ZM229.44,498.39h.32-.32ZM228.74,498.3h.28-.28,0ZM270.34,498.34h-.18.28-.09,0ZM227.96,498.25h.09-.09ZM271.17,498.25h.09-.09ZM271.96,498.2h-.09.18-.09ZM227.12,498.16h.18-.18ZM226.38,498.11h.14-.14ZM272.74,498.11h-.09.14-.05ZM210.58,496.12C91.33,477.36,0,374.06,0,249.59S111.85,0,249.59,0s249.59,111.85,249.59,249.59-91.33,227.82-210.58,246.54v-174.39h58.14l11.05-72.15h-69.24v-46.82c0-19.74,9.66-38.96,40.67-38.96h31.48v-61.43s-28.56-4.85-55.88-4.85c-56.99,0-94.29,34.57-94.29,97.11v55h-63.37v72.15h63.37v174.39l.05-.05Z"/>
  </g>
</svg>