<?xml version="1.0" encoding="UTF-8"?>
<svg id="Layer_2" data-name="Layer 2" xmlns="http://www.w3.org/2000/svg" viewBox="0 0 500 500">
  <defs>
    <style>
      .cls-1 {
        fill: #d74226;
        fill-rule: evenodd;
        stroke-width: 0px;
      }
    </style>
  </defs>
  <g id="Layer_1-2" data-name="Layer 1">
    <path class="cls-1" d="M250,0c137.98,0,250,112.02,250,250s-112.02,250-250,250S0,387.98,0,250,112.02,0,250,0ZM250,93.75c-42.43,0-47.76.18-64.42.94-16.63.76-27.99,3.4-37.93,7.26-10.27,3.99-18.99,9.34-27.67,18.02s-14.03,17.4-18.02,27.67c-3.86,9.94-6.5,21.3-7.26,37.93-.76,16.67-.94,21.99-.94,64.42s.18,47.76.94,64.42c.76,16.63,3.4,27.99,7.26,37.93,3.99,10.27,9.34,18.99,18.02,27.68,8.69,8.69,17.4,14.03,27.67,18.02,9.94,3.86,21.3,6.5,37.93,7.26,16.67.76,21.99.94,64.42.94s47.76-.18,64.42-.94c16.63-.76,27.99-3.4,37.93-7.26,10.27-3.99,18.99-9.34,27.68-18.02,8.69-8.69,14.03-17.4,18.02-27.68,3.86-9.94,6.5-21.3,7.26-37.93.76-16.67.94-21.99.94-64.42s-.18-47.76-.94-64.42c-.76-16.63-3.4-27.99-7.26-37.93-3.99-10.27-9.34-18.99-18.02-27.67-8.69-8.69-17.4-14.03-27.68-18.02-9.94-3.86-21.3-6.5-37.93-7.26-16.67-.76-21.99-.94-64.42-.94ZM250,121.9c41.72,0,46.66.16,63.14.91,15.23.7,23.51,3.24,29.01,5.38,7.29,2.83,12.5,6.22,17.97,11.69,5.47,5.47,8.85,10.67,11.69,17.97,2.14,5.51,4.69,13.78,5.38,29.01.75,16.48.91,21.42.91,63.14s-.16,46.66-.91,63.14c-.69,15.23-3.24,23.51-5.38,29.01-2.83,7.29-6.22,12.5-11.69,17.97-5.47,5.47-10.67,8.85-17.97,11.69-5.51,2.14-13.78,4.69-29.01,5.38-16.47.75-21.42.91-63.14.91s-46.66-.16-63.14-.91c-15.23-.69-23.51-3.24-29.01-5.38-7.29-2.83-12.5-6.22-17.97-11.69-5.47-5.47-8.85-10.67-11.69-17.97-2.14-5.51-4.69-13.78-5.38-29.01-.75-16.48-.91-21.42-.91-63.14s.16-46.66.91-63.14c.7-15.23,3.24-23.51,5.38-29.01,2.83-7.29,6.22-12.5,11.69-17.97,5.47-5.47,10.67-8.85,17.97-11.69,5.51-2.14,13.78-4.68,29.01-5.38,16.48-.75,21.42-.91,63.14-.91ZM250,169.76c-44.31,0-80.24,35.92-80.24,80.24s35.92,80.24,80.24,80.24,80.24-35.92,80.24-80.24-35.92-80.24-80.24-80.24h0ZM250,302.08c-28.76,0-52.08-23.32-52.08-52.08s23.32-52.08,52.08-52.08,52.08,23.32,52.08,52.08-23.32,52.08-52.08,52.08ZM352.16,166.59c0,10.36-8.4,18.75-18.75,18.75s-18.75-8.39-18.75-18.75,8.39-18.75,18.75-18.75,18.75,8.39,18.75,18.75Z"/>
  </g>
</svg>